<svg xmlns="http://www.w3.org/2000/svg" xmlns:xlink="http://www.w3.org/1999/xlink" width="1080" zoomAndPan="magnify" viewBox="0 0 810 809.999993" height="1080" preserveAspectRatio="xMidYMid meet" version="1.0"><path fill="rgb(100%, 100%, 100%)" d="M 346.238281 20.417969 C 178.148438 22.257812 43.367188 160.046875 45.222656 328.144531 C 47.054688 496.21875 184.832031 631.003906 352.9375 629.15625 C 415.011719 628.484375 475.394531 608.824219 526.011719 572.832031 L 699.859375 746.648438 C 719.765625 766.292969 751.859375 766.089844 771.503906 746.15625 C 790.953125 726.445312 790.953125 694.734375 771.503906 674.996094 L 597.65625 501.179688 C 695.089844 364.203125 663 174.15625 526.011719 76.714844 C 473.53125 39.425781 410.605469 19.707031 346.238281 20.417969 Z M 342.582031 73.097656 C 481.398438 69.21875 597.085938 178.589844 600.964844 317.433594 C 601.023438 319.875 601.078125 322.316406 601.078125 324.75 C 601.128906 463.621094 488.582031 576.253906 349.726562 576.332031 C 210.851562 576.386719 98.210938 463.863281 98.144531 324.980469 C 98.144531 324.910156 98.144531 324.84375 98.144531 324.765625 C 97.992188 188.515625 206.371094 76.90625 342.582031 73.097656 Z M 342.582031 73.097656 " fill-opacity="1" fill-rule="nonzero"/><path fill="rgb(100%, 100%, 100%)" d="M 281.722656 138.277344 C 295.484375 133.351562 310.632812 140.5 315.570312 154.261719 C 320.464844 167.929688 313.453125 182.996094 299.828125 188.039062 C 242.335938 208.960938 204.066406 263.605469 204.066406 324.777344 C 204.066406 339.40625 192.21875 351.257812 177.597656 351.257812 C 162.980469 351.257812 151.128906 339.40625 151.128906 324.777344 C 151.136719 241.347656 203.3125 166.808594 281.722656 138.277344 Z M 281.722656 138.277344 " fill-opacity="1" fill-rule="nonzero"/></svg>