<svg xmlns="http://www.w3.org/2000/svg" xmlns:xlink="http://www.w3.org/1999/xlink" width="1080" zoomAndPan="magnify" viewBox="0 0 810 809.999993" height="1080" preserveAspectRatio="xMidYMid meet" version="1.0"><defs><clipPath id="id1"><path d="M 559 68.425781 L 728 68.425781 L 728 635 L 559 635 Z M 559 68.425781 " clip-rule="nonzero"/></clipPath><clipPath id="id2"><path d="M 44.5 693 L 779.5 693 L 779.5 729 L 44.5 729 Z M 44.5 693 " clip-rule="nonzero"/></clipPath></defs><path fill="rgb(100%, 100%, 100%)" d="M 131.851562 239.960938 L 229.871094 239.960938 L 229.871094 599.570312 L 131.851562 599.570312 Z M 114.351562 634.578125 L 247.371094 634.578125 C 257.039062 634.578125 264.871094 626.746094 264.871094 617.074219 L 264.871094 222.457031 C 264.871094 212.785156 257.039062 204.953125 247.371094 204.953125 L 114.351562 204.953125 C 104.683594 204.953125 96.851562 212.785156 96.851562 222.457031 L 96.851562 617.074219 C 96.851562 626.746094 104.683594 634.578125 114.351562 634.578125 " fill-opacity="1" fill-rule="nonzero"/><path fill="rgb(100%, 100%, 100%)" d="M 362.984375 367.367188 L 460.984375 367.367188 L 460.984375 599.570312 L 362.984375 599.570312 Z M 345.484375 634.578125 L 478.484375 634.578125 C 488.152344 634.578125 495.984375 626.746094 495.984375 617.074219 L 495.984375 349.859375 C 495.984375 340.195312 488.152344 332.355469 478.484375 332.355469 L 345.484375 332.355469 C 335.824219 332.355469 327.984375 340.195312 327.984375 349.859375 L 327.984375 617.074219 C 327.984375 626.746094 335.824219 634.578125 345.484375 634.578125 " fill-opacity="1" fill-rule="nonzero"/><g clip-path="url(#id1)"><path fill="rgb(100%, 100%, 100%)" d="M 594.097656 103.734375 L 692.125 103.734375 L 692.125 599.570312 L 594.097656 599.570312 Z M 576.597656 634.578125 L 709.625 634.578125 C 719.292969 634.578125 727.125 626.746094 727.125 617.074219 L 727.125 86.230469 C 727.125 76.5625 719.292969 68.726562 709.625 68.726562 L 576.597656 68.726562 C 566.9375 68.726562 559.097656 76.5625 559.097656 86.230469 L 559.097656 617.074219 C 559.097656 626.746094 566.9375 634.578125 576.597656 634.578125 " fill-opacity="1" fill-rule="nonzero"/></g><g clip-path="url(#id2)"><path fill="rgb(100%, 100%, 100%)" d="M 761.988281 693.722656 L 62.011719 693.722656 C 52.34375 693.722656 44.511719 701.5625 44.511719 711.226562 C 44.511719 720.894531 52.34375 728.730469 62.011719 728.730469 L 761.988281 728.730469 C 771.65625 728.730469 779.488281 720.894531 779.488281 711.226562 C 779.488281 701.5625 771.65625 693.722656 761.988281 693.722656 " fill-opacity="1" fill-rule="nonzero"/></g></svg>